# xmcd
#
# Track frame offsets:
# 150
# 15770
# 32965
# 55062
# 74907
# 92532
# 110450
# 134690
# 153465
# 179255
#
# Disc length: 2631 seconds
#
# Revision: 1
# Processed by: cddbd v1.5.1PL2 Copyright (c) Steve Scherf et al.
# Submitted via: inCDius 2.0b9
#
DISCID=840a450a
DTITLE=Various Artist - Beautiful Music from Around the World
DYEAR=1900
DGENRE=
TTITLE0=Giant Step - Michael Pluznik
TTITLE1=Mujeres Y Ninos - Rumillajta
TTITLE2=Back Home - Nando Lauria
TTITLE3=Ladakh - Ancient Future
TTITLE4=Zina - Simon Wynberg
TTITLE5=Shall We - Nando Lauria
TTITLE6=Barcelona - Andrew White
TTITLE7=Riga - Simon Wynberg
TTITLE8=Tango De Luxe - Bernardo Rubaja
TTITLE9=Maria - Bernardo Rubaja
EXTD=
EXTT0=
EXTT1=
EXTT2=
EXTT3=
EXTT4=
EXTT5=
EXTT6=
EXTT7=
EXTT8=
EXTT9=
PLAYORDER=
